<svg width="160" height="156" viewBox="0 0 160 156" fill="none" xmlns="http://www.w3.org/2000/svg">
<path d="M92.7904 0L160 39V117L92.7904 156L25.5811 117V39L92.7904 0Z" fill="#D5E3F6"/>
<g clip-path="url(#clip0_7_12303)">
<path d="M124.743 40.5989C115.498 47.7484 93.8459 101.202 93.8459 101.202C93.8459 101.202 136.875 79.5999 141.031 70.6478C143.31 65.738 127.915 40.522 124.982 40.5225C124.89 40.5225 124.81 40.5474 124.743 40.5989V40.5989Z" fill="white"/>
<path fill-rule="evenodd" clip-rule="evenodd" d="M124.743 40.5989C115.498 47.7484 93.8459 101.202 93.8459 101.202C93.8459 101.202 136.875 79.5999 141.031 70.6478C143.31 65.738 127.915 40.522 124.982 40.5225C124.89 40.5225 124.81 40.5474 124.743 40.5989V40.5989ZM125.046 41.2951C125.103 41.3223 125.178 41.3606 125.236 41.3988C125.464 41.5497 125.724 41.774 126.013 42.0586C127.524 43.544 129.712 46.5562 131.936 50.1043C135.293 55.4578 138.727 62.0305 140.018 66.4935C140.331 67.5792 140.518 68.5316 140.529 69.2992C140.535 69.7159 140.494 70.0676 140.369 70.337C139.899 71.3483 138.89 72.5206 137.5 73.8193C135.308 75.8668 132.183 78.1862 128.601 80.5836C116.993 88.3536 100.607 96.9161 95.2717 99.6527C97.8466 93.4085 106.622 72.4574 114.639 57.1854C118.591 49.6565 122.327 43.5092 125.046 41.2951Z" fill="#828282"/>
<path d="M98.3804 57.9866L111.142 78.9197L115.676 71.3226L98.884 46.8447L98.3804 57.9866V57.9866Z" fill="white"/>
<path fill-rule="evenodd" clip-rule="evenodd" d="M98.3804 57.9866L111.142 78.9197L115.676 71.3226L98.884 46.8447L98.3804 57.9866V57.9866ZM99.121 57.7948L99.5158 49.0606L114.807 71.3503L111.135 77.502L99.121 57.7948V57.7948Z" fill="#828282"/>
<path d="M117.354 57.9868C116.515 58.4932 108.119 78.9194 108.119 78.9194L115.675 83.9841L129.277 69.4659L117.354 57.9868V57.9868Z" fill="white"/>
<path fill-rule="evenodd" clip-rule="evenodd" d="M117.354 57.9868C116.515 58.4932 108.119 78.9194 108.119 78.9194L115.675 83.9841L129.277 69.4659L117.354 57.9868V57.9868ZM117.502 59.1472L128.247 69.4926L115.567 83.0278L109.024 78.6428C110.076 76.0947 114.476 65.4747 116.733 60.6723C117.006 60.0906 117.29 59.5433 117.502 59.1472V59.1472Z" fill="#828282"/>
<path d="M129.277 69.4661L134.818 58.9996L120.545 51.0654L116.347 60.3503L129.277 69.4661Z" fill="white"/>
<path fill-rule="evenodd" clip-rule="evenodd" d="M129.277 69.4661L134.818 58.9996L120.545 51.0654L116.347 60.3503L129.277 69.4661ZM129.02 68.387L117.264 60.0989L120.883 52.0936L133.835 59.2928L129.02 68.387V68.387Z" fill="#828282"/>
<path d="M120.881 61.1941L127.934 65.0771L134.818 52.4159L123.736 51.2344L120.881 61.1941V61.1941Z" fill="white"/>
<path fill-rule="evenodd" clip-rule="evenodd" d="M120.881 61.1941L127.934 65.0771L134.818 52.4159L123.736 51.2344L120.881 61.1941V61.1941ZM121.746 60.8321L124.268 52.0305L133.65 53.0307L127.643 64.079L121.746 60.8321V60.8321Z" fill="#828282"/>
<path d="M127.934 65.0769L135.826 51.0655L124.407 48.5332L120.041 57.9867L127.934 65.0769V65.0769Z" fill="white"/>
<path fill-rule="evenodd" clip-rule="evenodd" d="M127.934 65.0769L135.826 51.0655L124.407 48.5332L120.041 57.9867L127.934 65.0769V65.0769ZM127.744 63.9211L120.933 57.8018L124.823 49.3783L134.702 51.5691L127.744 63.9211V63.9211Z" fill="#828282"/>
<path d="M128.032 52.4162C127.766 51.4032 124.408 48.5337 124.408 48.5337L117.859 51.91L119.394 55.8768L128.032 52.4162V52.4162Z" fill="white"/>
<path fill-rule="evenodd" clip-rule="evenodd" d="M128.032 52.4162C127.766 51.4032 124.408 48.5337 124.408 48.5337L117.859 51.91L119.394 55.8768L128.032 52.4162V52.4162ZM126.968 52.051L119.808 54.9195L118.78 52.2614L124.302 49.4146C124.838 49.8888 125.852 50.8089 126.591 51.6257C126.727 51.7762 126.857 51.919 126.968 52.0511L126.968 52.051V52.051Z" fill="#828282"/>
<path d="M116.347 60.1816L108.119 78.9195L112.675 81.9734L109.799 78.9195L116.347 60.1816V60.1816Z" fill="white"/>
<path fill-rule="evenodd" clip-rule="evenodd" d="M116.347 60.1816L108.119 78.9195L112.675 81.9734L109.799 78.9195L116.347 60.1816V60.1816ZM109.115 78.7031L109.109 78.6758L109.433 77.7476L109.037 78.6509L109.115 78.7031V78.7031Z" fill="#828282"/>
<path d="M124.407 48.5332L124.239 48.8709L135.322 51.9095L135.826 51.0655L124.407 48.5332Z" fill="white"/>
<path fill-rule="evenodd" clip-rule="evenodd" d="M124.407 48.5332L124.239 48.8709L135.322 51.9095L135.826 51.0655L124.407 48.5332Z" fill="#828282"/>
<path d="M100.395 50.1369L112.493 68.9596L112.95 67.4482L100.688 49.5356L100.395 50.1369Z" fill="white"/>
<path fill-rule="evenodd" clip-rule="evenodd" d="M100.395 50.1369L112.493 68.9596L112.95 67.4482L100.688 49.5356L100.395 50.1369Z" fill="#828282"/>
<path d="M134.288 51.626L127.933 65.0767L135.826 51.0654L134.288 51.626V51.626Z" fill="white"/>
<path fill-rule="evenodd" clip-rule="evenodd" d="M134.288 51.626L127.933 65.0767L135.826 51.0654L134.288 51.626V51.626Z" fill="#828282"/>
<path d="M117.098 102.766C117.098 106.355 114.204 109.265 110.633 109.265C107.063 109.265 104.168 106.355 104.168 102.766C104.168 99.1763 107.063 96.2666 110.633 96.2666C114.204 96.2666 117.098 99.1763 117.098 102.766Z" fill="white"/>
<path fill-rule="evenodd" clip-rule="evenodd" d="M110.722 95.9L110.634 95.8994C106.861 95.8994 103.803 98.9737 103.803 102.766C103.803 106.559 106.861 109.633 110.634 109.633C114.406 109.633 117.464 106.559 117.464 102.766L117.463 102.677C117.416 98.9552 114.424 95.9471 110.722 95.9ZM110.555 96.635C107.223 96.6774 104.534 99.4061 104.534 102.766C104.534 106.153 107.265 108.898 110.634 108.898C114.002 108.898 116.733 106.153 116.733 102.766L116.732 102.687C116.69 99.3371 113.976 96.6346 110.634 96.6346L110.555 96.635Z" fill="#828282"/>
<path d="M110.885 104.032L112.733 99.3057L85.5298 77.1909L86.5219 87.6574L110.885 104.032V104.032Z" fill="white"/>
<path fill-rule="evenodd" clip-rule="evenodd" d="M110.885 104.032L112.733 99.3057L85.5298 77.1909L86.5219 87.6574L110.885 104.032V104.032ZM110.537 102.914L87.2169 87.2403L86.4228 78.8623L111.856 99.5383L110.537 102.914Z" fill="#828282"/>
<path d="M117.602 97.6174L92.7503 78.2041L90.2314 87.6576L92.2102 88.9058L114.58 103.019L117.602 97.6174H117.602Z" fill="white"/>
<path fill-rule="evenodd" clip-rule="evenodd" d="M117.602 97.6174L92.7503 78.2041L90.2314 87.6576L92.2101 88.9058L114.58 103.019L117.602 97.6174H117.602ZM116.656 97.8091L114.319 101.987L92.599 88.2831C92.5989 88.2831 91.0776 87.3235 91.0776 87.3235L93.1718 79.4642L116.656 97.8091V97.8091Z" fill="#828282"/>
<path d="M89.8955 119.394L81.3315 129.692L119.953 133.068L126.502 129.861V126.315L102.657 121.082L89.8955 119.394V119.394Z" fill="white"/>
<path fill-rule="evenodd" clip-rule="evenodd" d="M89.8955 119.394L81.3315 129.692L119.953 133.068L126.502 129.861V126.315L102.657 121.082L89.8955 119.394V119.394ZM90.1986 120.176L102.531 121.807L125.77 126.907V129.401L119.815 132.318L82.7922 129.081L90.1986 120.176Z" fill="#828282"/>
<path d="M117.602 130.029L83.8504 126.653L79.8208 130.198L118.946 134.755L126.502 129.86V126.315L123.144 125.64L117.602 130.029H117.602Z" fill="white"/>
<path fill-rule="evenodd" clip-rule="evenodd" d="M117.602 130.029L83.8504 126.653L79.8208 130.198L118.946 134.755L126.502 129.86V126.315L123.144 125.64L117.602 130.029H117.602ZM117.53 130.76L118.055 130.606L123.331 126.427L125.771 126.918V129.46L118.77 133.995L81.5443 129.658L84.0936 127.416L117.53 130.76V130.76Z" fill="#828282"/>
<path d="M78.3091 131.042L96.4443 132.73L97.2838 126.99L112.732 121.757C112.732 121.757 107.527 120.575 108.367 118.55C109.206 116.524 121.632 103.019 121.632 103.019L98.1237 104.876C98.1237 104.876 80.324 118.212 78.3091 131.042" fill="white"/>
<path fill-rule="evenodd" clip-rule="evenodd" d="M77.9479 130.985L77.9472 130.99L77.9464 130.997L77.9455 131.004L77.945 131.008L77.9447 131.014L77.944 131.022L77.9437 131.027V131.032L77.9435 131.041V131.046L77.9436 131.051L77.9438 131.059L77.9441 131.064L77.9445 131.07L77.9451 131.077L77.9456 131.083L77.9464 131.088L77.9472 131.095L77.9481 131.101L77.9492 131.107L77.9503 131.113L77.9514 131.119L77.953 131.125L77.9541 131.131L77.9555 131.136L77.9577 131.143L77.9589 131.148L77.9606 131.153L77.9663 131.17L77.973 131.187L77.9803 131.203L77.9884 131.219L77.992 131.225L77.9942 131.229L77.9972 131.234L78.0009 131.24L78.0035 131.244L78.0068 131.249L78.0104 131.254L78.0135 131.258L78.017 131.263L78.0206 131.268L78.0241 131.272L78.0278 131.277L78.0314 131.281L78.0355 131.286L78.0394 131.29L78.0428 131.294L78.0474 131.299L78.0516 131.303L78.0549 131.306L78.06 131.311L78.0644 131.315L78.0675 131.318L78.0731 131.323L78.0777 131.327L78.081 131.329L78.0869 131.334L78.0916 131.338L78.095 131.34L78.1012 131.345L78.106 131.348L78.1097 131.35L78.1161 131.354L78.121 131.357L78.1252 131.36L78.1314 131.363L78.1364 131.366L78.1412 131.369L78.1473 131.372L78.1523 131.374L78.158 131.377L78.1637 131.379L78.1687 131.382L78.1752 131.384L78.1805 131.386L78.1856 131.388L78.1928 131.391L78.1977 131.392L78.2028 131.394L78.2204 131.399L78.2383 131.403L78.2465 131.404L78.2521 131.405L78.2567 131.406L78.2637 131.407L78.2707 131.408L78.2754 131.408L96.4106 133.096L96.806 132.784L97.6129 127.267L112.849 122.106L112.813 121.399C112.813 121.399 111 120.989 109.726 120.237C109.338 120.008 109 119.751 108.801 119.455C108.646 119.225 108.589 118.97 108.704 118.691C108.951 118.097 110.227 116.497 111.881 114.54C115.818 109.88 121.901 103.269 121.901 103.269L121.603 102.653L98.095 104.51L97.9053 104.582C97.9053 104.582 91.4647 109.407 85.8751 116.052C82.1236 120.512 78.7634 125.792 77.9479 130.985V130.985ZM78.7359 130.713L96.1329 132.332L96.922 126.937L97.167 126.642C97.167 126.642 111.499 121.787 111.499 121.787C110.621 121.502 109.443 121.037 108.705 120.418C108.036 119.857 107.713 119.173 108.029 118.409C108.286 117.788 109.599 116.106 111.324 114.064C114.501 110.303 119.073 105.274 120.732 103.459C120.732 103.459 98.2587 105.234 98.2584 105.235C97.4908 105.82 91.5958 110.389 86.4334 116.527C82.8627 120.772 79.6347 125.767 78.7359 130.713V130.713Z" fill="#828282"/>
<path d="M118.357 109.989L125.826 98.6797L109.31 100.213L107.758 102.363L118.357 109.989V109.989Z" fill="white"/>
<path fill-rule="evenodd" clip-rule="evenodd" d="M118.357 109.989L125.826 98.6797L109.31 100.213L107.758 102.363L118.357 109.989V109.989ZM118.167 108.948L108.782 102.196L109.707 100.915L124.371 99.553L118.167 108.948V108.948Z" fill="#828282"/>
<path fill-rule="evenodd" clip-rule="evenodd" d="M116.594 124.276L109.71 130.86C109.564 131 109.558 131.233 109.697 131.38C109.836 131.527 110.068 131.532 110.214 131.393L117.098 124.809C117.245 124.669 117.25 124.436 117.111 124.29C116.972 124.142 116.741 124.137 116.594 124.276Z" fill="#828282"/>
<path fill-rule="evenodd" clip-rule="evenodd" d="M110.766 122.887L101.88 128.853C101.713 128.966 101.667 129.195 101.78 129.363C101.892 129.532 102.119 129.577 102.287 129.465L111.172 123.498C111.34 123.385 111.385 123.157 111.273 122.988C111.161 122.819 110.934 122.774 110.766 122.887Z" fill="#828282"/>
<path d="M107.695 102.344L109.374 100.149L125.83 98.6299L107.695 102.344Z" fill="white"/>
<path fill-rule="evenodd" clip-rule="evenodd" d="M107.695 102.344L109.374 100.149L125.83 98.6299L107.695 102.344ZM109.469 101.23L109.759 100.852L112.595 100.59L109.469 101.23Z" fill="#828282"/>
<path d="M91.4068 86.9822L92.7503 78.2041L90.2314 87.6575L93.7097 89.8522L91.4068 86.9822Z" fill="white"/>
<path fill-rule="evenodd" clip-rule="evenodd" d="M91.4068 86.9822L92.7503 78.2041L90.2314 87.6575L93.7097 89.8522L91.4068 86.9822Z" fill="#828282"/>
<path d="M98.1235 104.876C98.1235 104.876 80.6601 118.043 78.3089 131.042L80.8069 131.126C80.8069 131.126 82.1714 120.744 99.9707 104.876H98.1235V104.876Z" fill="white"/>
<path fill-rule="evenodd" clip-rule="evenodd" d="M98.1235 104.876C98.1235 104.876 80.6601 118.043 78.3089 131.042L80.8069 131.126C80.8069 131.126 82.1714 120.744 99.9707 104.876H98.1235V104.876ZM96.0651 107.497C83.5535 119.579 80.7765 128.026 80.2142 130.371L79.2009 130.336C80.3111 125.533 83.4477 120.755 86.8584 116.69C90.168 112.745 93.7479 109.472 96.0651 107.497V107.497Z" fill="#828282"/>
<path d="M80.0327 74.987L74.6945 74.9253L69.3963 80.9863L80.0327 87.6477H86.2454L91.6855 81.9047L92.4163 79.3332L88.9326 74.987H80.0327V74.987Z" fill="white"/>
<path fill-rule="evenodd" clip-rule="evenodd" d="M80.0327 74.987L74.6945 74.9253L69.3963 80.9863L80.0327 87.6477H86.2454L91.6855 81.9047L92.4163 79.3332L88.9326 74.987H80.0327V74.987ZM80.0242 75.7222C80.0327 75.7222 88.5826 75.7222 88.5826 75.7222C88.5827 75.7222 91.609 79.4978 91.609 79.4978L91.0318 81.5288L85.932 86.9125H80.2419L70.5146 80.8206L75.0221 75.6643C75.022 75.6643 80.0242 75.7222 80.0242 75.7222Z" fill="#828282"/>
<path d="M77.0545 76.7249L85.4503 81.2833L90.4882 76.7249L97.5405 61.5324L72.3531 60.1816L77.0545 76.7249Z" fill="white"/>
<path fill-rule="evenodd" clip-rule="evenodd" d="M77.0545 76.7249L85.4503 81.2833L90.4882 76.7249L97.5405 61.5324L72.3531 60.1816L77.0545 76.7249ZM77.673 76.2252L73.3377 60.9707L96.4196 62.2085L89.8885 76.2785L85.3443 80.3903L77.673 76.2252Z" fill="#828282"/>
<path d="M72.5206 48.0267C73.169 50.6688 65.13 17.9234 65.132 17.6406L63.453 25.0681L65.132 41.4431L72.5206 48.0267Z" fill="white"/>
<path fill-rule="evenodd" clip-rule="evenodd" d="M72.5206 48.0267C73.169 50.6688 65.13 17.9234 65.132 17.6406L63.453 25.0681L65.132 41.4431L72.5206 48.0267ZM65.1457 20.8975C66.6101 26.98 69.8959 40.3942 71.2488 45.9111L65.8303 41.083L64.1928 25.113L65.1457 20.8975V20.8975Z" fill="#828282"/>
<path d="M65.1322 17.6406L64.1245 22.097L68.5423 44.4818L72.5208 48.0267L65.1322 17.6406V17.6406Z" fill="white"/>
<path fill-rule="evenodd" clip-rule="evenodd" d="M65.1322 17.6406L64.1245 22.0971L68.5423 44.4818L72.5208 48.0267L65.1322 17.6406V17.6406ZM65.1581 20.8428L71.2549 45.9165C71.2549 45.9164 69.2116 44.0959 69.2116 44.0959L64.8721 22.1075L65.1581 20.8428V20.8428Z" fill="#828282"/>
<path d="M99.2198 45.6636C99.2198 45.6636 98.368 16.2978 98.3803 15.7837L94.686 27.0943L93.8465 38.067L99.2198 45.6636V45.6636Z" fill="white"/>
<path fill-rule="evenodd" clip-rule="evenodd" d="M99.2198 45.6635C99.2198 45.6635 98.368 16.2977 98.3803 15.7837L94.686 27.0941L93.8465 38.0669L99.2198 45.6635V45.6635ZM98.4188 43.2625L94.5959 37.8579L95.4082 27.239L97.7583 20.0441C97.9336 26.4203 98.2724 38.1946 98.4188 43.262V43.2625V43.2625Z" fill="#828282"/>
<path d="M96.0296 23.0431L94.8625 50.2219L99.2194 45.6635L98.3804 15.7837L96.0296 23.0431V23.0431Z" fill="white"/>
<path fill-rule="evenodd" clip-rule="evenodd" d="M96.0296 23.0431L94.8625 50.2219L99.2194 45.6635L98.3804 15.7837L96.0296 23.0431V23.0431ZM96.756 23.175L97.7686 20.0479L98.4797 45.3762L95.6766 48.3092L96.756 23.175Z" fill="#828282"/>
<path d="M81.9237 69.4663L73.0243 70.9851L98.2122 70.1411L92.6708 68.9595L81.9237 69.4663Z" fill="white"/>
<path fill-rule="evenodd" clip-rule="evenodd" d="M81.9237 69.4663L73.0243 70.9851L98.2122 70.1411L92.6708 68.9595L81.9237 69.4663Z" fill="#828282"/>
<path d="M61.9417 40.5991L73.0242 70.9851L81.9241 69.4658L92.6711 68.9596L98.212 70.1412L99.2198 40.5991H61.9417V40.5991Z" fill="white"/>
<path fill-rule="evenodd" clip-rule="evenodd" d="M61.9417 40.5991L73.0242 70.9851L81.9241 69.4658L92.6711 68.9596L98.212 70.1412L99.2198 40.5991H61.9417V40.5991ZM62.9888 41.3343H98.463L97.5111 69.2402C97.5112 69.2402 92.8229 68.2404 92.8229 68.2404L92.6369 68.2252L81.8898 68.7315L81.8017 68.7411L73.5014 70.158L62.9888 41.3343V41.3343Z" fill="#828282"/>
<path d="M82.092 56.1299C82.092 56.2676 81.9243 69.4659 81.9243 69.4659L92.6709 68.9597L93.5104 56.2986L82.092 56.1299Z" fill="white"/>
<path fill-rule="evenodd" clip-rule="evenodd" d="M82.092 56.1299C82.092 56.2676 81.9243 69.466 81.9243 69.466L92.6709 68.9597L93.5104 56.2986L82.092 56.1299V56.1299ZM82.8144 56.8759L92.7295 57.0222L91.9847 68.256L82.6654 68.6951C82.6955 66.321 82.7857 59.205 82.8144 56.8759V56.8759Z" fill="#828282"/>
<path d="M61.438 40.5991H64.7341L73.0245 70.9851C73.0245 70.9851 63.7887 64.7149 63.7887 64.7393L61.438 40.5991Z" fill="white"/>
<path fill-rule="evenodd" clip-rule="evenodd" d="M61.4405 40.2314L61.4212 40.2318L61.4192 40.2319L61.402 40.2332C61.3725 40.236 61.3442 40.2425 61.3172 40.2521L61.3124 40.2538L61.3092 40.255C61.2599 40.2736 61.2159 40.3026 61.1796 40.3391L61.1671 40.3524L61.1555 40.3658C61.123 40.4056 61.0985 40.4525 61.0849 40.5037L61.0839 40.5072L61.0828 40.512C61.0759 40.5399 61.0724 40.5689 61.0724 40.5987L61.0728 40.616L61.0729 40.618L61.0743 40.6365L61.0744 40.6372L63.4248 64.7751L64.1543 64.7392C64.1543 64.7641 63.6091 65.0589 63.6091 65.0589C63.6091 65.0589 63.7184 65.1299 63.8452 65.2144C65.341 66.2121 72.8199 71.2897 72.8199 71.2897L73.3772 70.8879L65.0866 40.5017L64.734 40.2314H61.4405V40.2314ZM64.1354 64.5262C64.1688 64.5483 64.207 64.5736 64.2495 64.6019C65.4411 65.3966 70.4277 68.7793 72.4107 70.125L64.4551 40.9666H61.8412L64.1354 64.5262Z" fill="#828282"/>
<path d="M65.1322 44.4819L42.1274 47.5206V56.4678L65.2999 52.0785L65.1322 44.4819V44.4819Z" fill="white"/>
<path fill-rule="evenodd" clip-rule="evenodd" d="M65.1322 44.4819L42.1274 47.5206V56.4678L65.2999 52.0785L65.1322 44.4819V44.4819ZM64.4192 45.3176L64.5551 51.4715L42.8586 55.5812V48.1654L64.4192 45.3176V45.3176Z" fill="#828282"/>
<path d="M45.6738 41.9497V58.4934L25.3556 65.5832L20.8218 44.4821L45.6738 41.9497V41.9497Z" fill="white"/>
<path fill-rule="evenodd" clip-rule="evenodd" d="M45.6738 41.9497V58.4934L25.3556 65.5832L20.8218 44.4821L45.6738 41.9497V41.9497ZM44.9425 42.7632V57.9705L25.8961 64.6166L21.7093 45.1306L44.9425 42.7632Z" fill="#828282"/>
<path d="M20.8219 44.4819L6.21287 48.5336L11.7543 64.2329L25.3556 65.5836L20.8219 44.4819V44.4819Z" fill="white"/>
<path fill-rule="evenodd" clip-rule="evenodd" d="M20.8219 44.4819L6.21287 48.5336L11.7543 64.2329L25.3556 65.5836L20.8219 44.4819V44.4819ZM20.2704 45.3975L24.4291 64.7529L12.2883 63.5472C12.2882 63.5472 7.16479 49.0322 7.16479 49.0322L20.2704 45.3975Z" fill="#828282"/>
<path d="M21.1576 61.3631L18.1352 47.1831L0 52.2473L4.36566 61.8693L21.1576 61.3631V61.3631Z" fill="white"/>
<path fill-rule="evenodd" clip-rule="evenodd" d="M21.1576 61.3631L18.1352 47.1831L0 52.2473L4.36566 61.8693L21.1576 61.3631V61.3631ZM20.2588 60.6548L4.82933 61.12L1.0206 52.7253L17.5828 48.1003L20.2588 60.6548V60.6548Z" fill="#828282"/>
<path d="M22.8368 59.6749L17.2954 65.0767L13.0976 62.3759L18.9749 55.2856L22.8368 59.6749V59.6749Z" fill="white"/>
<path fill-rule="evenodd" clip-rule="evenodd" d="M22.8368 59.6749L17.2954 65.0767L13.0976 62.3759L18.9749 55.2856L22.8368 59.6749V59.6749ZM21.8263 59.6361L17.202 64.1439L14.1902 62.206L18.9914 56.414L21.8263 59.6361V59.6361Z" fill="#828282"/>
<path d="M80.4128 56.1301L65.7935 40.5994L56.7362 40.2617V42.2873L80.4128 56.1301V56.1301Z" fill="white"/>
<path fill-rule="evenodd" clip-rule="evenodd" d="M80.4128 56.1301L65.7935 40.5994L56.7362 40.2617V42.2873L80.4128 56.1301V56.1301ZM76.3935 52.9298L57.4675 41.8645V41.0246L65.4678 41.3229L76.3935 52.9298Z" fill="#828282"/>
<path d="M95.1897 56.13L107.28 41.2746L106.104 39.2485L94.3502 40.5993L95.1897 56.13V56.13Z" fill="white"/>
<path fill-rule="evenodd" clip-rule="evenodd" d="M95.1897 56.1299L107.28 41.2745L106.104 39.2485L94.3502 40.5992L95.1897 56.1299V56.1299ZM95.8175 54.1974L95.1177 41.251L105.713 40.0333L106.392 41.204L95.8175 54.1974V54.1974Z" fill="#828282"/>
<path d="M92.6709 68.9597L81.9239 69.4659V67.7149L89.0711 59.5317L90.2597 58.4025V58.3697L82.2598 58.3245L82.092 56.1299L93.4831 56.2093V57.9442L86.385 66.1274L85.2291 67.2727V67.3055L92.8385 66.9341L92.6709 68.9597V68.9597Z" fill="white"/>
<path fill-rule="evenodd" clip-rule="evenodd" d="M92.6709 68.9597L81.9239 69.4659V67.7149L89.0711 59.5317L90.2597 58.4025V58.3697L82.2598 58.3245L82.092 56.1299L93.4831 56.2093V57.9442L86.385 66.1274L85.2291 67.2727V67.3055L92.8385 66.9341L92.6709 68.9597V68.9597ZM85.2283 68.0059V68.007L84.4979 67.2737C84.4979 67.2737 84.4979 67.3005 84.4979 67.3048C84.4979 67.9761 85.2291 68.0407 85.2291 68.0407L85.2646 68.0399L92.0406 67.7091L91.9954 68.2556L82.6551 68.6955V67.9917L89.5982 60.0424L90.762 58.9367L90.2597 59.1376C90.2597 59.1376 90.991 58.5476 90.991 58.3705C90.991 57.7026 90.2597 59.1048 90.2597 59.1048L90.2638 57.6345L82.9373 57.5932L82.8821 56.8706L92.7519 56.9394V57.6688L85.8521 65.6233L84.7159 66.7492L85.2283 68.0059V68.0059Z" fill="#828282"/>
<path d="M92.6709 68.9597L81.9239 69.4659V67.7149L89.0711 59.5317L90.2597 58.4025V58.3697L82.2598 58.3245L82.092 56.1299L93.4831 56.2093V57.9442L86.385 66.1274L85.2291 67.2727V67.3055L92.8385 66.9341L92.6709 68.9597V68.9597Z" fill="white"/>
<path fill-rule="evenodd" clip-rule="evenodd" d="M92.6709 68.9597L81.9239 69.4659V67.7149L89.0711 59.5317L90.2597 58.4025V58.3697L82.2598 58.3245L82.092 56.1299L93.4831 56.2093V57.9442L86.385 66.1274L85.2291 67.2727V67.3055L92.8385 66.9341L92.6709 68.9597V68.9597ZM85.2283 68.0059V68.007L84.4979 67.2737C84.4979 67.2737 84.4979 67.3005 84.4979 67.3048C84.4979 67.9761 85.2291 68.0407 85.2291 68.0407L85.2646 68.0399L92.0406 67.7091L91.9954 68.2556L82.6551 68.6955V67.9917L89.5982 60.0424L90.762 58.9367L90.2597 59.1376C90.2597 59.1376 90.991 58.5476 90.991 58.3705C90.991 57.7026 90.2597 59.1048 90.2597 59.1048L90.2638 57.6345L82.9373 57.5932L82.8821 56.8706L92.7519 56.9394V57.6688L85.8521 65.6233L84.7159 66.7492L85.2283 68.0059V68.0059Z" fill="#828282"/>
<path d="M106.104 39.2485L93.5107 56.1299V57.9864L107.28 41.274L106.104 39.2485V39.2485Z" fill="white"/>
<path fill-rule="evenodd" clip-rule="evenodd" d="M106.104 39.2485L93.5107 56.1299V57.9864L107.28 41.274L106.104 39.2485V39.2485ZM97.6246 51.8406L106.028 40.576L106.391 41.2007L97.6246 51.8406Z" fill="#828282"/>
<path d="M56.7364 40.2617V42.2873L82.2601 58.3248L81.9242 56.1302L56.7364 40.2617V40.2617Z" fill="white"/>
<path fill-rule="evenodd" clip-rule="evenodd" d="M56.7364 40.2617V42.2873L82.2601 58.3248L81.9242 56.1302L56.7364 40.2617V40.2617ZM57.4676 41.59L81.2523 56.5744L81.2947 56.8513L57.4676 41.8799V41.59V41.59Z" fill="#828282"/>
<path d="M72.5206 40.4307L82.0918 56.13L93.5106 56.299L94.3501 40.5992L72.5206 40.4307V40.4307Z" fill="white"/>
<path fill-rule="evenodd" clip-rule="evenodd" d="M72.5206 40.4307L82.0918 56.13L93.5106 56.299L94.3501 40.5992L72.5206 40.4307V40.4307ZM73.8327 41.1759L93.5788 41.3285L92.8182 55.5535L82.505 55.4008L73.8327 41.1759V41.1759Z" fill="#828282"/>
<path d="M98.3801 51.7425L97.2047 69.9266L98.2124 69.9726L98.7199 50.4751L98.3801 51.7425Z" fill="white"/>
<path fill-rule="evenodd" clip-rule="evenodd" d="M98.3801 51.7425L97.2048 69.9266L98.2124 69.9726L98.7199 50.4751L98.3801 51.7425Z" fill="#828282"/>
<path d="M76.1262 80.3984L49.9311 104.032V107.577L82.1713 84.6187L76.1262 80.3984V80.3984Z" fill="white"/>
<path fill-rule="evenodd" clip-rule="evenodd" d="M76.1262 80.3984L49.9311 104.032V107.577L82.1713 84.6187L76.1262 80.3984V80.3984ZM76.1841 81.3339L80.8978 84.6246L50.6624 106.156V104.36L76.1841 81.3339Z" fill="#828282"/>
<path d="M76.1262 91.0335L74.6149 82.5931L67.8981 80.3984L49.9311 101.669L54.6327 106.058L76.1262 91.0335V91.0335Z" fill="white"/>
<path fill-rule="evenodd" clip-rule="evenodd" d="M76.1262 91.0335L74.6149 82.5931L67.8981 80.3984L49.9311 101.669L54.6327 106.058L76.1262 91.0335V91.0335ZM75.3234 90.6993L54.6987 105.116L50.9413 101.609L68.1382 81.2498C68.1382 81.2499 73.9728 83.1562 73.9728 83.1562L75.3234 90.6993V90.6993Z" fill="#828282"/>
<path d="M38.8483 116.017L32.8032 114.33L11.3097 131.042V136.106L28.6053 138.132L47.58 128.847L38.8483 116.017V116.017Z" fill="white"/>
<path fill-rule="evenodd" clip-rule="evenodd" d="M38.8483 116.017L32.8032 114.33L11.3097 131.042V136.106L28.6053 138.132L47.58 128.847L38.8483 116.017V116.017ZM38.3955 116.654L46.4978 128.559L28.4776 137.377L12.0409 135.452V131.403L32.9607 115.137L38.3955 116.654Z" fill="#828282"/>
<path d="M29.4448 133.743L21.8885 128.004L11.3097 131.042V136.106L28.6053 138.133L47.58 128.848L48.4195 125.303L29.4448 133.743V133.743Z" fill="white"/>
<path fill-rule="evenodd" clip-rule="evenodd" d="M29.4448 133.743L21.8885 128.004L11.3097 131.042V136.106L28.6053 138.133L47.58 128.848L48.4195 125.303L29.4448 133.743V133.743ZM29.004 134.33L29.7407 134.416L47.3665 126.575L46.9488 128.339L28.4776 137.377L12.0409 135.452V131.597L21.7387 128.811L29.004 134.33V134.33Z" fill="#828282"/>
<path d="M49.9309 101.668L41.0311 104.032L21.8887 120.575L18.5303 121.757V126.315L30.1163 119.394L42.3746 126.315L44.0536 132.73L50.6027 130.029L50.0987 122.77L56.4795 112.135L49.9309 101.668Z" fill="white"/>
<path fill-rule="evenodd" clip-rule="evenodd" d="M49.9309 101.668L41.0311 104.032L21.8887 120.575L18.5303 121.757V126.315L30.1163 119.394L42.3746 126.315L44.0536 132.73L50.6027 130.029L50.0987 122.77L56.4795 112.135L49.9309 101.668ZM49.598 102.517L55.6208 112.143L49.4725 122.39L49.3692 122.821L49.8365 129.55L44.5484 131.731L43.0818 126.128L42.7326 125.674L30.4744 118.753L29.7427 118.762L19.2615 125.023V122.279L22.1303 121.269L22.3654 121.133L41.3803 104.699L49.598 102.517V102.517Z" fill="#828282"/>
<path d="M41.0312 104.032L46.4045 97.6172H57.0409L60.3417 107.577L56.4798 112.135L41.0312 104.032V104.032Z" fill="white"/>
<path fill-rule="evenodd" clip-rule="evenodd" d="M41.0312 104.032L46.4045 97.6172H57.0409L60.3417 107.577L56.4798 112.135L41.0312 104.032V104.032ZM42.1779 103.804L46.7447 98.3523H56.5137L59.5176 107.416L56.3011 111.212L42.1779 103.804V103.804Z" fill="#828282"/>
<path d="M18.5301 126.146L26.0864 124.121L33.9986 131.717" fill="white"/>
<path fill-rule="evenodd" clip-rule="evenodd" d="M18.6243 126.502L25.9823 124.529L33.7461 131.983C33.892 132.123 34.1237 132.118 34.263 131.971C34.4024 131.824 34.3971 131.592 34.2511 131.451L26.3389 123.855L25.9922 123.766L18.436 125.791C18.2409 125.843 18.1249 126.045 18.1768 126.241C18.2289 126.437 18.4293 126.554 18.6243 126.502V126.502Z" fill="#828282"/>
<path d="M26.0864 121.801L29.8646 120.998L38.5504 130.198" fill="white"/>
<path fill-rule="evenodd" clip-rule="evenodd" d="M26.1621 122.161L29.7403 121.4L38.2853 130.451C38.4242 130.598 38.6558 130.604 38.8022 130.464C38.9486 130.324 38.9545 130.092 38.8157 129.944L30.1297 120.744L29.7889 120.638L26.0107 121.442C25.8133 121.484 25.687 121.679 25.7288 121.877C25.7705 122.076 25.9647 122.203 26.1621 122.161V122.161Z" fill="#828282"/>
<path d="M80.1213 82.5981L79.9536 93.5709H85.4946L89.1889 82.5981H80.1213V82.5981Z" fill="white"/>
<path fill-rule="evenodd" clip-rule="evenodd" d="M80.1213 82.5981L79.9536 93.5709H85.4946L89.1889 82.5981H80.1213V82.5981ZM80.8414 83.3333H88.1694L84.9701 92.8357H80.6962L80.8414 83.3333V83.3333Z" fill="#828282"/>
<path d="M11.3097 131.042L18.6914 125.302L18.53 121.757L21.8884 120.575L41.0313 104.032L46.4046 97.6173H53.3534L67.8981 80.3982L69.3967 80.9863L74.695 74.9253H76.5216L77.0695 76.7616L74.695 76.3946L69.3996 80.9942L70.3254 81.1912L54.4644 98.2926L48.4193 98.6298L43.3221 105.233L24.911 121.589L20.713 122.939L19.5378 124.473L13.6603 130.367L11.3097 131.042V131.042Z" fill="white"/>
<path fill-rule="evenodd" clip-rule="evenodd" d="M11.3097 131.042L18.6914 125.302L18.53 121.757L21.8884 120.575L41.0313 104.032L46.4046 97.6173H53.3534L67.8981 80.3982L69.3967 80.9863L74.695 74.9253H76.5216L77.0695 76.7616L74.695 76.3946L69.3996 80.9942L70.3254 81.1912L54.4644 98.2926L48.4193 98.6298L43.3221 105.233L24.911 121.589L20.713 122.939L19.5378 124.473L13.6603 130.367L11.3097 131.042V131.042ZM47.708 98.3525L42.7864 104.728L24.5418 120.935C24.5419 120.935 20.4902 122.239 20.4902 122.239L20.1338 122.491L19.3425 123.523L19.2854 122.27L22.13 121.269L22.3651 121.133L41.508 104.59L41.5906 104.506L46.7447 98.3525H47.708ZM56.5757 94.9383L68.9473 81.5991L68.118 81.2737L56.5757 94.9383V94.9383ZM74.9938 75.697L75.0257 75.6604H75.9775L76.0365 75.8582L74.9938 75.697Z" fill="#828282"/>
<path d="M20.713 122.939L31.484 120.166L40.0236 124.12L32.2996 117.199L21.8884 120.575L20.713 122.939V122.939Z" fill="white"/>
<path fill-rule="evenodd" clip-rule="evenodd" d="M20.713 122.939L31.484 120.166L40.0236 124.12L32.2996 117.199L21.8884 120.575L20.713 122.939V122.939ZM22.0836 121.827L22.4052 121.18L32.1255 118.028L35.8798 121.392L31.79 119.498L31.3026 119.454L22.0836 121.827V121.827Z" fill="#828282"/>
<path d="M77.8789 25.9517C77.8789 25.9517 68.0869 33.7388 73.9326 42.8483C77.8994 49.0294 83.6826 48.2432 86.9908 47.0988C88.6801 46.5147 90.1377 45.4036 91.1556 43.9284C93.2972 40.8261 96.4123 34.5646 92.4046 28.3026C92.3738 28.2546 77.8789 25.9517 77.8789 25.9517V25.9517Z" fill="white"/>
<path fill-rule="evenodd" clip-rule="evenodd" d="M77.8789 25.9517C77.8789 25.9517 68.0869 33.7388 73.9326 42.8483C77.8994 49.0294 83.6826 48.2432 86.9908 47.0988C88.6801 46.5147 90.1377 45.4036 91.1556 43.9284C93.2972 40.8261 96.4123 34.5646 92.4046 28.3026C92.3738 28.2546 77.8789 25.9517 77.8789 25.9517V25.9517ZM91.9546 28.9653C95.4996 34.8128 92.5548 40.6121 90.5548 43.5093C89.6256 44.8561 88.2949 45.8704 86.753 46.4037C83.662 47.4729 78.2532 48.2247 74.5471 42.4498C71.8109 38.1859 72.7441 34.2313 74.3518 31.3428C75.6775 28.9609 77.457 27.2872 78.0936 26.7303L78.0939 26.7301C80.0122 27.0352 89.7343 28.5825 91.867 28.9498L91.9546 28.9653V28.9653Z" fill="#828282"/>
<path d="M77.5265 34.0588L77.879 43.7299L84.6017 44.7582L86.8369 33.7799L76.8557 32.4165L77.5265 34.0588V34.0588Z" fill="white"/>
<path fill-rule="evenodd" clip-rule="evenodd" d="M77.5265 34.0588L77.879 43.7299L84.6017 44.7582L86.8369 33.7799L76.8557 32.4165L77.5265 34.0588V34.0588ZM78.2573 34.0318L78.203 33.7795L78.0138 33.3166C78.0139 33.3166 85.9637 34.4026 85.9637 34.4026L84.0246 43.9262L78.5876 43.0946L78.2573 34.0318Z" fill="#828282"/>
<path d="M76.1248 47.991L86.0631 49.6072C91.0323 47.2563 95.5631 36.9201 95.5631 36.9201C95.5631 36.9201 94.3736 33.5125 94.3423 33.6434C92.055 43.289 87.0864 46.081 87.0864 46.081L84.8785 43.3076L77.5864 42.1137L75.6865 44.1712C71.7402 41.0854 72.6177 33.4453 72.6177 33.4453C69.9969 41.8907 76.1248 47.991 76.1248 47.991V47.991Z" fill="white"/>
<path fill-rule="evenodd" clip-rule="evenodd" d="M76.1248 47.991L86.0631 49.6072C91.0323 47.2563 95.5631 36.9201 95.5631 36.9201C95.5631 36.9201 94.3736 33.5125 94.3423 33.6434C92.055 43.289 87.0864 46.081 87.0864 46.081L84.8785 43.3076L77.5864 42.1137L75.6865 44.1712C71.7402 41.0854 72.6177 33.4453 72.6177 33.4453C69.9969 41.8907 76.1248 47.991 76.1248 47.991V47.991ZM94.4539 36.0166L94.7734 36.8907C94.3592 37.794 92.9137 40.8337 90.9508 43.7098C89.4962 45.8412 87.767 47.8991 85.9496 48.8439C85.9492 48.8441 76.485 47.3048 76.485 47.3048L76.4847 47.3045C76.0763 46.8565 74.9367 45.5097 74.0133 43.5028C74.3658 43.9654 74.7717 44.3871 75.2376 44.7514L76.2225 44.6713L77.8556 42.9026L84.4833 43.9877L86.5155 46.5403L87.4431 46.7228C87.4431 46.7228 91.8956 44.2789 94.4539 36.0166V36.0166Z" fill="#828282"/>
<path d="M82.5288 21.8896L72.0328 29.2915V31.9759L77.4354 34.5181L86.5014 35.7957L94.3936 32.7105L95.2175 31.3388L87.6982 22.3621L82.5288 21.8896V21.8896Z" fill="white"/>
<path fill-rule="evenodd" clip-rule="evenodd" d="M82.5288 21.8896L72.0328 29.2915V31.9759L77.4354 34.5181L86.5014 35.7957L94.3936 32.7105L95.2175 31.3388L87.6982 22.3621L82.5288 21.8896V21.8896ZM82.7293 22.6462L87.3326 23.0669L94.3208 31.4095L93.8965 32.1162L86.4141 35.0411L77.6457 33.8054L72.7641 31.5083V29.6737L82.7293 22.6462V22.6462Z" fill="#828282"/>
<path d="M92.8678 30.0786L96.7838 31.9685L96.001 40.0002L92.88 41.1024C92.88 41.1024 91.7714 37.0082 92.8678 30.0786Z" fill="white"/>
<path fill-rule="evenodd" clip-rule="evenodd" d="M92.8852 29.7119L92.8675 29.7114L92.8619 29.7115C92.805 29.7124 92.7503 29.7266 92.7016 29.7518L92.6978 29.7537L92.6945 29.7554C92.6463 29.7815 92.6036 29.8186 92.5705 29.8652L92.566 29.8714L92.563 29.8761L92.5574 29.8846L92.5483 29.9001L92.5399 29.916L92.5323 29.9324L92.5256 29.9494L92.5237 29.9547L92.522 29.9594L92.5196 29.9667L92.5178 29.9722L92.5129 29.99L92.5089 30.0077L92.5059 30.0256L92.5058 30.0271C91.3956 37.0503 92.5271 41.1994 92.5271 41.1994L93.001 41.4497L96.1221 40.3474L96.3648 40.0364L97.1478 32.0047L96.9421 31.6375L93.031 29.7501L93.0251 29.7473L93.0136 29.7419L92.9967 29.7351L92.9915 29.7332L92.9868 29.7315L92.9795 29.7291L92.974 29.7273L92.9564 29.7224L92.9387 29.7184L92.9209 29.7153L92.9031 29.7131L92.8852 29.7119V29.7119ZM93.1545 30.6252C92.376 35.9532 92.9186 39.4928 93.1459 40.6194L95.6598 39.7314L96.395 32.1889L93.1545 30.6252V30.6252Z" fill="#828282"/>
<path d="M96.784 31.9688C96.784 31.9688 95.2176 34.6462 96.0006 40.0004C96.0006 40.0004 97.7239 36.3782 96.784 31.9688" fill="white"/>
<path fill-rule="evenodd" clip-rule="evenodd" d="M96.6425 31.6298L96.637 31.6321L96.6205 31.6398L96.6046 31.6484L96.5952 31.6539L96.5891 31.6576L96.5835 31.6613L96.5802 31.6635L96.5743 31.6676L96.5701 31.6706L96.5657 31.6737L96.56 31.6782L96.557 31.6806L96.5517 31.6848L96.5463 31.6893L96.5381 31.6965L96.5251 31.7091L96.5126 31.7223L96.5087 31.7269C96.494 31.7437 96.4806 31.7623 96.4689 31.7824C96.4689 31.7824 94.8324 34.5382 95.6388 40.0539L96.3304 40.1591C96.3304 40.1591 98.1091 36.4307 97.1415 31.8917C97.1367 31.8689 97.1298 31.8471 97.121 31.8264L97.1188 31.8208L97.1111 31.8044L97.1026 31.7884L97.0971 31.779L97.0935 31.7729L97.0898 31.7672L97.0877 31.7639L97.0836 31.7579L97.0804 31.7537L97.0774 31.7493L97.073 31.7436L97.0706 31.7405L97.0664 31.7351L97.0618 31.7297L97.0547 31.7214L97.0423 31.7084L97.0291 31.6958L97.0246 31.6919C97.0078 31.6771 96.9894 31.6637 96.9694 31.6518C96.9384 31.6336 96.9058 31.6204 96.8726 31.6121L96.8674 31.6108L96.8525 31.6076L96.8498 31.6071L96.8423 31.6059L96.8349 31.6046L96.8172 31.6025L96.8117 31.6022C96.7775 31.5995 96.7425 31.6017 96.7074 31.6092C96.6847 31.6142 96.663 31.6211 96.6425 31.6298V31.6298ZM96.633 33.3617L96.1906 38.3622C96.518 37.1873 96.8422 35.4059 96.633 33.3617Z" fill="#828282"/>
<path d="M96.4707 32.7563C96.4707 32.7563 95.5308 34.9612 95.8443 38.4258C95.8443 38.4258 96.6273 36.2208 96.4707 32.7563" fill="white"/>
<path fill-rule="evenodd" clip-rule="evenodd" d="M96.4361 32.3904L96.4197 32.3923L96.4169 32.3926L96.4021 32.3952C96.3615 32.403 96.3234 32.4174 96.289 32.4374L96.2821 32.4413L96.2672 32.451L96.2627 32.4541L96.258 32.4573L96.2529 32.4612L96.25 32.4633L96.2438 32.468L96.2378 32.4731C96.2071 32.4985 96.1802 32.5292 96.1587 32.5647L96.1511 32.5778L96.1425 32.5944L96.1422 32.5949C96.139 32.6016 96.136 32.6084 96.1332 32.6152C96.0896 32.7186 95.1644 34.9688 95.4802 38.4591L96.1886 38.5493C96.1886 38.5493 96.996 36.291 96.8361 32.7422C96.8359 32.7353 96.8354 32.7283 96.8347 32.7215L96.8328 32.7049L96.8324 32.7022L96.8298 32.6873C96.8222 32.6465 96.8078 32.6082 96.7879 32.5735L96.7839 32.5667L96.7744 32.5517L96.7713 32.5471L96.7681 32.5424L96.7643 32.5372L96.7622 32.5345L96.7575 32.5282L96.7524 32.5221C96.7272 32.4912 96.6965 32.4643 96.6613 32.4426L96.6483 32.435L96.6318 32.4263L96.6312 32.426C96.6092 32.4152 96.5862 32.4065 96.5621 32.4003L96.5459 32.3965L96.528 32.3932L96.5263 32.3929L96.5098 32.3907C96.4851 32.388 96.4604 32.388 96.4361 32.3904V32.3904Z" fill="#828282"/>
<path d="M92.7111 31.6538L92.4265 34.2783L95.5308 34.8036C95.5308 34.8036 95.6873 34.016 96.1573 32.7561L92.7111 31.6538V31.6538Z" fill="white"/>
<path fill-rule="evenodd" clip-rule="evenodd" d="M92.7111 31.6538L92.4265 34.2783L95.5308 34.8036C95.5308 34.8036 95.6873 34.016 96.1573 32.7561L92.7111 31.6538V31.6538ZM93.3412 32.6268L95.2159 33.2264C95.1215 33.5114 95.0465 33.76 94.9881 33.9664C94.9882 33.9664 93.2281 33.6685 93.2281 33.6685L93.3412 32.6268V32.6268Z" fill="#828282"/>
<path d="M82.5288 21.8896C82.5288 21.8896 78.0618 27.5885 77.4354 34.5181L86.2883 35.7482C86.2883 35.7482 86.9148 25.1969 87.6982 22.3621L82.5288 21.8896V21.8896Z" fill="white"/>
<path fill-rule="evenodd" clip-rule="evenodd" d="M82.5288 21.8896C82.5288 21.8896 78.0618 27.5885 77.4354 34.5181L86.2883 35.7482C86.2883 35.7482 86.9148 25.1969 87.6982 22.3621L82.5288 21.8896V21.8896ZM82.8695 22.659L86.802 23.0184C86.2266 26.0461 85.7589 32.6348 85.6089 34.9116C85.609 34.9116 78.2402 33.8877 78.2402 33.8877C78.9469 28.4203 81.9971 23.8677 82.8693 22.6591L82.8695 22.659V22.659Z" fill="#828282"/>
<path d="M88.9514 25.9842L88.1681 33.071L92.7111 31.3384L92.5546 25.6689L89.4677 24.4741L88.9514 25.9842V25.9842Z" fill="white"/>
<path fill-rule="evenodd" clip-rule="evenodd" d="M88.9514 25.9842L88.1681 33.071L92.7111 31.3384L92.5546 25.6689L89.4677 24.4741L88.9514 25.9842V25.9842ZM89.6693 26.1461L89.9128 25.4342C89.9127 25.4342 91.8371 26.1791 91.8371 26.1791L91.9657 30.8364C91.9657 30.8365 89.0269 31.9571 89.0269 31.9571L89.6693 26.1461V26.1461Z" fill="#828282"/>
<path d="M92.5545 25.6694L88.9513 25.9845L88.1683 33.0714L92.7109 31.3389L92.5545 25.6694V25.6694Z" fill="white"/>
<path fill-rule="evenodd" clip-rule="evenodd" d="M92.5545 25.6694L88.9513 25.9845L88.1683 33.0714L92.7109 31.3389L92.5545 25.6694V25.6694ZM91.845 26.4694L91.9655 30.8369L89.0271 31.9576L89.6119 26.6646L91.845 26.4694V26.4694Z" fill="#828282"/>
<path fill-rule="evenodd" clip-rule="evenodd" d="M89.1404 29.573L92.1695 28.8442C92.3659 28.797 92.4871 28.5985 92.44 28.4012C92.3931 28.2039 92.1956 28.082 91.9994 28.1293L88.9702 28.8581C88.7739 28.9053 88.6527 29.1038 88.6997 29.3011C88.7467 29.4985 88.9442 29.6202 89.1404 29.573V29.573Z" fill="#828282"/>
<path fill-rule="evenodd" clip-rule="evenodd" d="M89.0018 31.2375L92.1917 30.2537C92.3846 30.1943 92.4931 29.9885 92.4341 29.7945C92.3749 29.6005 92.1701 29.4914 91.9772 29.5509L88.7874 30.5347C88.5944 30.5942 88.4859 30.8 88.5451 30.9939C88.6043 31.1879 88.8089 31.297 89.0018 31.2375Z" fill="#828282"/>
<path fill-rule="evenodd" clip-rule="evenodd" d="M89.3677 28.001L92.1468 27.517C92.3457 27.4823 92.4792 27.2919 92.4447 27.092C92.4103 26.8922 92.2209 26.758 92.0221 26.7925L89.2429 27.2767C89.0441 27.3113 88.9106 27.5017 88.945 27.7015C88.9795 27.9015 89.1689 28.0357 89.3677 28.001V28.001Z" fill="#828282"/>
<path d="M74.0696 24.882L72.8163 29.4492L75.793 31.6537C77.2029 27.087 80.0226 23.7798 80.0226 23.7798L74.0696 24.882Z" fill="white"/>
<path fill-rule="evenodd" clip-rule="evenodd" d="M74.0696 24.882L72.8163 29.4492L75.793 31.6537C77.2029 27.087 80.0226 23.7798 80.0226 23.7798L74.0696 24.882ZM74.6527 25.5216L78.323 24.842C77.4595 26.113 76.2811 28.089 75.4205 30.4647C75.4205 30.4648 73.6549 29.1573 73.6549 29.1573L74.6527 25.5216Z" fill="#828282"/>
<path d="M74.0696 24.8818L76.8893 26.1546L75.793 31.6535L72.8163 29.449L74.0696 24.8818Z" fill="white"/>
<path fill-rule="evenodd" clip-rule="evenodd" d="M74.0696 24.8818L76.8893 26.1546L75.793 31.6535L72.8163 29.449L74.0696 24.8818ZM74.5478 25.9035L76.0577 26.5851L75.3017 30.3766L73.6549 29.1571L74.5478 25.9035V25.9035Z" fill="#828282"/>
<path d="M74.0696 24.8818L76.8893 26.1546L75.793 31.6535L72.8163 29.449L74.0696 24.8818Z" fill="white"/>
<path fill-rule="evenodd" clip-rule="evenodd" d="M74.0696 24.8818L76.8893 26.1546L75.793 31.6535L72.8163 29.449L74.0696 24.8818ZM74.5478 25.9035L76.0577 26.5851L75.3017 30.3766L73.6549 29.1571L74.5478 25.9035V25.9035Z" fill="#828282"/>
<path fill-rule="evenodd" clip-rule="evenodd" d="M74.321 26.9834L75.7869 27.6258C75.9719 27.707 76.1875 27.6218 76.2682 27.4359C76.3489 27.2499 76.2642 27.0331 76.0792 26.9519L74.6132 26.3095C74.4282 26.2284 74.2126 26.3135 74.1319 26.4995C74.0513 26.6854 74.136 26.9023 74.321 26.9834Z" fill="#828282"/>
<path fill-rule="evenodd" clip-rule="evenodd" d="M73.7391 28.8133L75.2884 29.6181C75.4676 29.7111 75.6884 29.6404 75.7811 29.4602C75.8736 29.2799 75.8033 29.0581 75.6241 28.9649L74.0747 28.1601C73.8955 28.0671 73.6747 28.1378 73.582 28.318C73.4895 28.4982 73.5598 28.7201 73.7391 28.8133Z" fill="#828282"/>
<path fill-rule="evenodd" clip-rule="evenodd" d="M74.0052 27.8701L75.5111 28.5989C75.693 28.6869 75.9116 28.61 75.9992 28.4272C76.0867 28.2444 76.0102 28.0246 75.8283 27.9366L74.3224 27.2078C74.1406 27.1198 73.9219 27.1967 73.8344 27.3795C73.7469 27.5623 73.8234 27.7822 74.0052 27.8701Z" fill="#828282"/>
<path d="M72.0332 29.2915V31.969L77.4352 34.518L77.8004 32.1302L72.0332 29.2915V29.2915Z" fill="white"/>
<path fill-rule="evenodd" clip-rule="evenodd" d="M72.0332 29.2915V31.969L77.4352 34.518L77.8004 32.1302L72.0332 29.2915V29.2915ZM72.7644 30.47L76.9959 32.5527L76.861 33.4349L72.7644 31.5019V30.47V30.47Z" fill="#828282"/>
<path d="M70.31 29.134V35.7483L71.9656 38.0602V35.9919L70.9364 34.8034V28.8188L70.31 29.134V29.134Z" fill="white"/>
<path fill-rule="evenodd" clip-rule="evenodd" d="M70.31 29.134V35.7483L71.9656 38.0602V35.9919L70.9364 34.8034V28.8188L70.31 29.134V29.134Z" fill="#828282"/>
<path d="M72.5032 32.9136L72.0332 32.7563C72.0332 32.7563 70.9368 38.7742 72.5032 42.0647C74.0695 45.3548 76.1062 47.8748 76.1062 47.8748L75.6363 44.5677C75.6363 44.5677 73.7565 43.1504 72.9731 40.788C72.2042 38.4684 71.8766 36.7085 72.5032 32.9136" fill="white"/>
<path fill-rule="evenodd" clip-rule="evenodd" d="M72.616 32.5642L72.1487 32.4077L71.6735 32.6902C71.6735 32.6902 70.5689 38.8532 72.1734 42.2235C73.7594 45.5552 75.8225 48.1068 75.8225 48.1068L76.4682 47.823L75.9982 44.5159L75.8557 44.2738C75.8557 44.2738 74.0663 42.9224 73.32 40.6719C72.5686 38.4047 72.2515 36.6844 72.8634 32.9765C72.8658 32.9633 72.8673 32.9501 72.8681 32.9368L72.8688 32.921L72.8687 32.903L72.8686 32.8997L72.8678 32.885L72.8674 32.8815L72.8659 32.8673L72.8654 32.8635L72.8625 32.8456L72.8587 32.8281L72.8542 32.8109L72.8488 32.7939L72.8426 32.7773L72.8376 32.7653L72.8357 32.7609L72.8301 32.7493L72.828 32.7451L72.8241 32.7382L72.8218 32.7338L72.8194 32.7297L72.8162 32.7241L72.8129 32.7186L72.8103 32.7146L72.8075 32.7104L72.8032 32.7038L72.7928 32.6895L72.7818 32.6758L72.7699 32.6625L72.7575 32.6498L72.7446 32.6377L72.7309 32.6261L72.7166 32.6152L72.7016 32.6051L72.6986 32.6031L72.6862 32.5956L72.6834 32.5939L72.6701 32.5867L72.6675 32.5853L72.6533 32.5786C72.6412 32.5731 72.6287 32.5683 72.616 32.5642V32.5642ZM72.1236 39.1686C72.2376 40.1578 72.4554 41.1133 72.8329 41.9062C73.7435 43.8187 74.8149 45.4679 75.5416 46.5001C75.5416 46.5001 75.2948 44.7637 75.2951 44.7639C74.8531 44.3959 73.3239 43.0084 72.6262 40.9044C72.427 40.3034 72.2565 39.7392 72.1236 39.1686Z" fill="#828282"/>
<path d="M77.516 42.0479L75.6361 44.095L76.1061 47.8746L77.516 42.0479V42.0479Z" fill="white"/>
<path fill-rule="evenodd" clip-rule="evenodd" d="M77.516 42.0479L75.6361 44.095L76.1061 47.8746L77.516 42.0479V42.0479Z" fill="#828282"/>
<path d="M77.516 42.0479L76.1061 47.8746L77.2025 48.0324L78.6124 42.2051L77.516 42.0479V42.0479Z" fill="white"/>
<path fill-rule="evenodd" clip-rule="evenodd" d="M77.516 42.0479L76.1061 47.8746L77.2025 48.0324L78.6124 42.2051L77.516 42.0479V42.0479Z" fill="#828282"/>
<path d="M56.7364 40.2617V42.2873L82.2601 58.3248L81.9242 56.1302L56.7364 40.2617V40.2617Z" fill="white"/>
<path fill-rule="evenodd" clip-rule="evenodd" d="M56.7364 40.2617V42.2873L82.2601 58.3248L81.9242 56.1302L56.7364 40.2617V40.2617ZM57.4676 41.59L81.2523 56.5744L81.2947 56.8513L57.4676 41.8799V41.59V41.59Z" fill="#828282"/>
<path d="M106.104 39.2485L93.5107 56.1299V57.9864L107.28 41.274L106.104 39.2485V39.2485Z" fill="white"/>
<path fill-rule="evenodd" clip-rule="evenodd" d="M106.104 39.2485L93.5107 56.1299V57.9864L107.28 41.274L106.104 39.2485V39.2485ZM97.6246 51.8406L106.028 40.576L106.391 41.2007L97.6246 51.8406Z" fill="#828282"/>
<path d="M62.6874 53.4288L63.4528 64.7394L73.0244 70.9852L65.6358 63.5577L64.4605 53.2603L62.6874 53.4288V53.4288Z" fill="white"/>
<path fill-rule="evenodd" clip-rule="evenodd" d="M62.6874 53.4288L63.4528 64.7394L73.0244 70.9852L65.6358 63.5577L64.4605 53.2603L62.6874 53.4288V53.4288ZM63.4653 54.0933L63.8157 54.06L64.9094 63.6415L65.1188 64.0775L67.5923 66.5641L64.1576 64.3227L63.4653 54.0933V54.0933Z" fill="#828282"/>
<path d="M14.9162 60.1812L11.608 60.3532L7.77472 50.0764L12.211 48.8369L14.9162 60.1812V60.1812Z" fill="white"/>
<path fill-rule="evenodd" clip-rule="evenodd" d="M14.9162 60.1812L11.608 60.3532L7.77472 50.0764L12.211 48.8369L14.9162 60.1812V60.1812ZM14 59.4928L12.1047 59.5912L8.73974 50.5697L11.6766 49.7492L14 59.4928Z" fill="#828282"/>
<path d="M10.3202 60.4209L7.08265 60.5894L3.5229 51.2628L6.54351 50.4204L10.3202 60.4209V60.4209Z" fill="white"/>
<path fill-rule="evenodd" clip-rule="evenodd" d="M10.3202 60.4209L7.08265 60.5894L3.5229 51.2628L6.54351 50.4204L10.3202 60.4209V60.4209ZM9.28052 59.7389L7.57523 59.8277L4.49401 51.755L6.09657 51.308L9.28052 59.7389V59.7389Z" fill="#828282"/>
<path d="M75.7111 71.7456L77.2224 76.9088L79.0018 77.8787L77.726 72.6886L75.7111 71.7456Z" fill="white"/>
<path fill-rule="evenodd" clip-rule="evenodd" d="M75.7111 71.7456L77.2224 76.9088L79.0018 77.8787L77.726 72.6886L75.7111 71.7456ZM76.8694 73.0986L77.1 73.2066L77.8946 76.439L77.8381 76.4082L76.8694 73.0986V73.0986Z" fill="#828282"/>
<path d="M67.6979 51.4624L73.0244 70.9854L80.5807 69.4661H73.8639L67.6979 51.4624V51.4624Z" fill="white"/>
<path fill-rule="evenodd" clip-rule="evenodd" d="M67.6979 51.4624L73.0244 70.9854L80.5807 69.4661H73.8639L67.6979 51.4624V51.4624ZM73.5493 70.1302L73.7175 70.0963L73.4969 69.9381L73.5493 70.1302V70.1302Z" fill="#828282"/>
<path d="M2.50534 51.5483L6.07188 60.6442L3.86197 60.7588L0 52.2473L2.50534 51.5483V51.5483Z" fill="white"/>
<path fill-rule="evenodd" clip-rule="evenodd" d="M2.50534 51.5483L6.07188 60.6442L3.86197 60.7588L0 52.2473L2.50534 51.5483V51.5483ZM2.06647 52.4337L5.01864 59.9626L4.32096 59.9989L1.02072 52.7255L2.06647 52.4337Z" fill="#828282"/>
<path d="M18.9748 55.2856L13.0974 62.376L17.2958 65.0769L16.2881 61.7006L18.9748 55.2856V55.2856Z" fill="white"/>
<path fill-rule="evenodd" clip-rule="evenodd" d="M18.9748 55.2856L13.0973 62.376L17.2958 65.0769L16.2881 61.7006L18.9748 55.2856V55.2856ZM16.399 59.5413L15.6141 61.4154L15.5877 61.9118L16.0286 63.3888L14.19 62.2061L16.399 59.5413Z" fill="#828282"/>
<path d="M20.8218 44.482L45.6739 41.9497L21.246 46.4552L20.8218 44.482V44.482Z" fill="white"/>
<path fill-rule="evenodd" clip-rule="evenodd" d="M20.8218 44.482L45.6739 41.9497L21.246 46.4552L20.8218 44.482V44.482ZM21.7094 45.1306L27.6671 44.5234L21.8111 45.6036L21.7094 45.1306Z" fill="#828282"/>
<path d="M6.21299 48.5336L20.822 44.4819L17.9671 47.1829L6.5489 50.3906L6.21299 48.5336Z" fill="white"/>
<path fill-rule="evenodd" clip-rule="evenodd" d="M6.21299 48.5336L20.822 44.4819L17.9671 47.1829L6.5489 50.3905L6.21299 48.5336ZM7.052 49.0635L18.1721 45.9795L17.5971 46.5235L7.12477 49.4655L7.052 49.0635V49.0635Z" fill="#828282"/>
<path d="M50.1955 46.4551L50.1877 48.0272L62.0082 46.4551L60.0202 45.1572L50.1955 46.4551V46.4551Z" fill="white"/>
<path fill-rule="evenodd" clip-rule="evenodd" d="M50.1955 46.4551L50.1877 48.0272L62.0082 46.4551L60.0202 45.1572L50.1955 46.4551V46.4551ZM50.9236 47.1004L59.8481 45.9214L59.9491 45.9874L50.9232 47.1879L50.9236 47.1004V47.1004Z" fill="#828282"/>
</g>
<defs>
<clipPath id="clip0_7_12303">
<rect width="141.337" height="142.089" fill="white" transform="translate(0 5.96191)"/>
</clipPath>
</defs>
</svg>
